<svg xmlns="http://www.w3.org/2000/svg" viewBox="0 0 160 160"><defs><linearGradient id="g" x1="0" x2="1"><stop stop-color="#0f766e"/><stop offset="1" stop-color="#19a67b"/></linearGradient></defs><rect width="160" height="160" rx="36" fill="#fff"/><path d="M35 103c12-27 35-32 59-25l18 5-9 16-23-5c-15-3-27 1-36 10z" fill="url(#g)"/><circle cx="61" cy="101" r="12" fill="#0f766e"/><circle cx="101" cy="101" r="12" fill="#0f766e"/><path d="M61 98h27l-7-22H56z" fill="#f59e0b"/><path d="M72 37c0-11 8-19 19-19s19 8 19 19c0 15-19 31-19 31S72 52 72 37z" fill="#f59e0b"/><circle cx="91" cy="37" r="6" fill="#fff"/><path d="M36 70l-17 10 19 1 13-10z" fill="#0f766e"/><text x="80" y="137" text-anchor="middle" font-family="Arial,sans-serif" font-size="22" font-weight="800" fill="#0f766e">جوان</text><text x="80" y="154" text-anchor="middle" font-family="Arial,sans-serif" font-size="11" font-weight="700" fill="#f59e0b">للتوصيل</text></svg>
